<?xml version="1.0" encoding="iso-8859-1"?>
<!-- Generator: Adobe Illustrator 19.0.0, SVG Export Plug-In . SVG Version: 6.00 Build 0)  -->
<svg xmlns="http://www.w3.org/2000/svg" xmlns:xlink="http://www.w3.org/1999/xlink" version="1.1" id="Layer_1" x="0px" y="0px" viewBox="0 0 512 512" style="enable-background:new 0 0 512 512;" xml:space="preserve" width="512px" height="512px">
<g>
	<g>
		<path d="M480.195,125.819c-20.096-18.907-47.151-29.32-76.183-29.32c-7.309,0-14.549,0.681-21.627,2.005    c-5.012-24.162-17.132-46.011-35.347-63.149C323.033,12.772,290.702,0.334,256,0.334s-67.033,12.438-91.037,35.023    c-18.215,17.136-30.335,38.985-35.347,63.147c-7.077-1.324-14.318-2.005-21.627-2.005c-29.032,0-56.087,10.412-76.183,29.32    C11.295,145.117,0,171.537,0,200.212c0,29.565,11.676,66.799,30.471,97.173c14.338,23.172,30.967,39.577,48.498,48.247    l-10.722,23.965c-1.119,2.502-0.895,5.399,0.596,7.698c1.49,2.299,4.043,3.687,6.783,3.687h24.277v122.599    c0,4.465,3.62,8.084,8.084,8.084c4.465,0,8.084-3.62,8.084-8.084V380.983h24.277c2.74,0,5.294-1.388,6.784-3.688    c1.491-2.299,1.715-5.197,0.596-7.698l-10.73-23.985c24.671-12.29,44.821-38.737,58.169-65.747    c8.776,8.087,18.149,14.713,27.97,19.398l-13.684,30.588c-1.119,2.501-0.895,5.398,0.596,7.698    c1.49,2.299,4.043,3.687,6.783,3.687h31.082v162.345c0,4.465,3.62,8.084,8.084,8.084c4.465,0,8.084-3.62,8.084-8.084V341.236    h31.082c2.74,0,5.294-1.388,6.783-3.688c1.491-2.299,1.715-5.197,0.596-7.698l-13.657-30.528    c9.948-4.735,19.3-11.425,27.952-19.439c13.349,27.003,33.495,53.441,58.159,65.728l-10.73,23.985    c-1.119,2.502-0.895,5.399,0.596,7.698c1.49,2.299,4.043,3.688,6.783,3.688h24.277v122.6c0,4.465,3.62,8.084,8.084,8.084    c4.465,0,8.084-3.62,8.084-8.084V380.983h24.277c2.74,0,5.294-1.388,6.783-3.688c1.491-2.299,1.715-5.197,0.596-7.698l-10.737-24    c10.383-5.151,20.503-13.031,30.041-23.486c3.009-3.298,2.775-8.412-0.524-11.421c-3.299-3.008-8.412-2.775-11.421,0.524    c-7.761,8.508-18.865,18.209-32.066,22.756c-0.388,0.134-0.776,0.265-1.164,0.388c-0.215,0.068-0.43,0.133-0.646,0.198    c-0.429,0.129-0.857,0.254-1.286,0.372c-0.182,0.05-0.364,0.099-0.548,0.147c-0.472,0.124-0.943,0.239-1.415,0.347    c-0.148,0.033-0.295,0.069-0.444,0.101c-0.511,0.112-1.023,0.214-1.533,0.308c-0.117,0.022-0.235,0.046-0.354,0.067    c-0.54,0.096-1.079,0.179-1.618,0.254c-0.097,0.014-0.192,0.03-0.289,0.043c-0.551,0.073-1.101,0.134-1.65,0.187    c-0.089,0.009-0.179,0.02-0.268,0.028c-0.552,0.05-1.103,0.084-1.652,0.112c-0.088,0.004-0.176,0.013-0.265,0.017    c-0.636,0.029-1.27,0.043-1.903,0.043c-0.597,0-1.196-0.015-1.797-0.041c-0.089-0.004-0.18-0.009-0.269-0.013    c-0.457-0.023-0.914-0.056-1.373-0.094c-0.37-0.031-0.745-0.067-1.125-0.109c-0.207-0.022-0.414-0.045-0.622-0.07    c-9.837-1.216-23.263-6.222-38.177-21.136c-11.972-11.973-23.15-28.733-31.784-47.583c12.573-14.443,23.931-32.264,33.258-52.146    c1.217-2.585,2.384-5.169,3.493-7.742c1.657-3.844,0.098-8.265-3.483-10.259c-0.239-0.134-0.487-0.255-0.744-0.367    c-4.097-1.768-8.856,0.123-10.624,4.223c-0.466,1.08-0.944,2.148-1.423,3.216c-0.176,0.391-0.345,0.787-0.522,1.177    c-0.291,0.641-0.592,1.272-0.887,1.909c-0.426,0.917-0.85,1.837-1.286,2.745c-0.165,0.345-0.335,0.686-0.502,1.029    c-0.603,1.242-1.209,2.48-1.83,3.705c-0.034,0.068-0.069,0.135-0.103,0.203c-7.567,14.898-16.406,28.469-25.871,39.728    c-0.24,0.285-0.483,0.563-0.724,0.844c-0.619,0.725-1.239,1.444-1.863,2.149c-0.525,0.593-1.054,1.174-1.583,1.753    c-1.552,1.702-3.115,3.359-4.693,4.93c-15.06,14.995-31.062,23.815-46.676,25.819c-0.141,0.018-0.282,0.031-0.423,0.047    c-0.869,0.105-1.737,0.184-2.603,0.247c-0.258,0.018-0.515,0.038-0.773,0.053c-1.002,0.057-2.005,0.096-3.003,0.096    c-0.77,0-1.541-0.019-2.315-0.053c-0.21-0.009-0.418-0.027-0.628-0.039c-0.566-0.031-1.132-0.066-1.7-0.115    c-0.249-0.022-0.498-0.052-0.746-0.077c-0.525-0.053-1.051-0.109-1.578-0.178c-0.279-0.037-0.557-0.079-0.835-0.12    c-0.486-0.07-0.973-0.146-1.461-0.23c-0.319-0.055-0.639-0.114-0.958-0.175c-0.429-0.081-0.857-0.167-1.286-0.259    c-0.378-0.081-0.756-0.164-1.133-0.252c-0.338-0.079-0.678-0.164-1.018-0.249c-0.465-0.117-0.928-0.235-1.392-0.363    c-0.184-0.051-0.369-0.107-0.553-0.161c-23.292-6.713-44.832-27.712-61.691-54.24c-0.098-0.155-0.198-0.308-0.296-0.464    c-0.127-0.202-0.252-0.406-0.379-0.609c-9.549-15.263-17.798-32.626-23.893-50.5c-0.017-0.052-0.034-0.102-0.052-0.154    c-0.328-0.961-0.648-1.925-0.963-2.89c-0.046-0.14-0.092-0.281-0.137-0.421c-0.291-0.898-0.576-1.796-0.856-2.696    c-0.049-0.155-0.097-0.31-0.146-0.466c-0.299-0.967-0.591-1.934-0.876-2.903c-0.017-0.059-0.036-0.12-0.053-0.179    c-0.31-1.058-0.614-2.118-0.91-3.178c-1.198-4.302-5.654-6.819-9.955-5.621c-0.269,0.076-0.531,0.163-0.786,0.262    c-3.817,1.491-5.96,5.661-4.838,9.693c0.606,2.176,1.244,4.353,1.912,6.528c0.022,0.069,0.044,0.139,0.065,0.208    c0.634,2.059,1.296,4.114,1.984,6.168c0.07,0.21,0.143,0.419,0.213,0.628c0.642,1.9,1.307,3.796,1.996,5.689    c0.114,0.315,0.232,0.628,0.347,0.943c0.656,1.784,1.332,3.562,2.03,5.336c0.148,0.377,0.297,0.752,0.447,1.129    c0.682,1.713,1.382,3.419,2.1,5.119c0.168,0.398,0.336,0.794,0.505,1.19c0.718,1.677,1.455,3.347,2.208,5.009    c0.177,0.39,0.352,0.78,0.531,1.168c0.765,1.666,1.548,3.323,2.347,4.971c0.175,0.361,0.349,0.723,0.526,1.083    c0.815,1.662,1.649,3.311,2.497,4.951c0.172,0.333,0.343,0.666,0.516,0.998c0.858,1.64,1.734,3.265,2.626,4.88    c0.179,0.324,0.356,0.651,0.537,0.974c0.883,1.582,1.784,3.15,2.697,4.705c0.205,0.349,0.407,0.701,0.614,1.049    c0.873,1.47,1.763,2.923,2.665,4.365c0.31,0.498,0.621,0.996,0.933,1.491c0.779,1.227,1.57,2.44,2.368,3.645    c0.561,0.848,1.126,1.687,1.696,2.521c0.531,0.779,1.067,1.554,1.607,2.323c0.914,1.304,1.839,2.588,2.772,3.858    c0.18,0.244,0.359,0.488,0.539,0.732c3.008,4.056,6.101,7.951,9.287,11.61c-8.634,18.848-19.811,35.609-31.783,47.583    c-14.914,14.915-28.34,19.921-38.177,21.136c-0.208,0.025-0.415,0.049-0.623,0.07c-0.38,0.041-0.756,0.078-1.125,0.108    c-0.458,0.037-0.916,0.071-1.373,0.094c-0.091,0.004-0.18,0.009-0.269,0.013c-0.6,0.026-1.2,0.041-1.797,0.041    c-0.669,0-1.34-0.017-2.011-0.05c-0.092-0.004-0.183-0.014-0.275-0.018c-0.603-0.033-1.206-0.074-1.811-0.134    c-20.557-2.021-42.083-19.081-59.672-47.505c-17.036-27.533-28.047-62.336-28.047-88.659c0-24.17,9.489-46.408,26.717-62.617    c17.085-16.075,40.205-24.926,65.104-24.926c6.56,0,13.05,0.621,19.375,1.852c-0.109,1.448-0.185,2.903-0.245,4.362    c-0.013,0.31-0.024,0.621-0.034,0.931c-0.049,1.442-0.082,2.888-0.082,4.341c0,5.326,0.328,10.979,0.973,16.803    c0.493,4.438,4.492,7.635,8.926,7.143c4.161-0.461,7.232-4.002,7.194-8.099c-0.002-0.274-0.019-0.549-0.05-0.827    c-0.581-5.234-0.875-10.287-0.875-15.021c0-1.124,0.023-2.25,0.056-3.375c0.009-0.299,0.022-0.596,0.033-0.895    c0.033-0.881,0.078-1.761,0.131-2.64c0.017-0.277,0.032-0.555,0.052-0.832c0.077-1.113,0.167-2.225,0.276-3.332    c0.017-0.177,0.041-0.352,0.059-0.528c0.091-0.876,0.194-1.75,0.306-2.621c3.119-24.16,14.19-46.082,31.956-62.798    C197.035,27.382,225.431,16.504,256,16.504s58.965,10.878,79.958,30.631c17.766,16.715,28.837,38.637,31.957,62.798    c0.111,0.871,0.215,1.745,0.306,2.621c0.018,0.177,0.042,0.351,0.059,0.528c0.11,1.107,0.199,2.218,0.276,3.332    c0.019,0.277,0.034,0.555,0.052,0.832c0.054,0.88,0.098,1.759,0.131,2.64c0.011,0.299,0.024,0.596,0.033,0.895    c0.033,1.125,0.056,2.252,0.056,3.375c0,1.73-0.039,3.498-0.117,5.298c-0.545,12.602-2.989,26.829-7.149,41.512    c-0.913,3.223,0.264,6.542,2.723,8.513c0.819,0.658,1.781,1.165,2.855,1.469c0.018,0.005,0.037,0.006,0.055,0.012    c0.308,0.085,0.618,0.147,0.927,0.194c0.104,0.016,0.207,0.027,0.31,0.039c0.241,0.028,0.483,0.044,0.722,0.05    c0.064,0.001,0.128,0.013,0.192,0.013c0.027,0,0.053-0.006,0.08-0.006c0.375-0.003,0.747-0.036,1.112-0.092    c0.085-0.013,0.168-0.029,0.252-0.044c0.37-0.068,0.735-0.153,1.089-0.271c0.037-0.012,0.071-0.029,0.108-0.041    c0.33-0.115,0.65-0.254,0.961-0.41c0.072-0.036,0.144-0.069,0.216-0.108c0.318-0.17,0.623-0.364,0.916-0.576    c0.072-0.052,0.141-0.107,0.211-0.162c0.293-0.227,0.577-0.468,0.838-0.734c0.025-0.025,0.045-0.053,0.069-0.078    c0.243-0.254,0.465-0.53,0.674-0.817c0.052-0.071,0.105-0.139,0.154-0.212c0.207-0.305,0.393-0.626,0.558-0.963    c0.04-0.081,0.075-0.164,0.113-0.247c0.156-0.346,0.295-0.702,0.404-1.077c0.004-0.016,0.013-0.031,0.018-0.047    c4.418-15.604,7.044-30.846,7.705-44.53c0.11-2.272,0.171-4.506,0.171-6.686c0-1.452-0.033-2.897-0.082-4.341    c-0.011-0.31-0.022-0.621-0.034-0.931c-0.059-1.459-0.136-2.915-0.245-4.362c6.325-1.231,12.815-1.852,19.375-1.852    c24.898,0,48.019,8.853,65.104,24.926c17.227,16.209,26.715,38.447,26.715,62.617c0,25.672-10.14,58.644-26.463,86.049    c-2.285,3.836-1.027,8.798,2.808,11.082c1.297,0.773,2.722,1.14,4.129,1.14c2.756,0,5.441-1.41,6.953-3.948    C500.987,264.772,512,228.629,512,200.212C512,171.537,500.705,145.117,480.195,125.819z M390.233,351.156    c4.48,1.039,9.075,1.597,13.778,1.597c1.137,0,2.275-0.039,3.413-0.105c0.015-0.001,0.03-0.001,0.044-0.002    c1.084-0.064,2.169-0.161,3.252-0.284c0.106-0.012,0.211-0.024,0.317-0.037c1.034-0.123,2.067-0.274,3.1-0.451    c0.151-0.026,0.302-0.054,0.453-0.08c1.008-0.181,2.016-0.384,3.022-0.616c0.058-0.014,0.115-0.022,0.172-0.036l6.115,13.67    h-39.776L390.233,351.156z M238.357,304.837c1.59,0.401,3.18,0.743,4.77,1.036c0.053,0.01,0.106,0.017,0.158,0.027    c0.706,0.128,1.412,0.247,2.119,0.354c0.309,0.047,0.619,0.088,0.929,0.131c0.447,0.061,0.894,0.122,1.341,0.175    c0.418,0.051,0.836,0.096,1.256,0.139c0.33,0.033,0.66,0.064,0.99,0.093c0.494,0.043,0.988,0.084,1.484,0.117    c0.221,0.014,0.443,0.025,0.664,0.037c1.306,0.074,2.617,0.124,3.932,0.124c6.033,0,11.922-0.776,17.649-2.218l9.045,20.216    h-53.387L238.357,304.837z M94.214,351.148c2.236,0.517,4.479,0.911,6.728,1.176c0.14,0.017,0.28,0.03,0.42,0.046    c0.953,0.106,1.907,0.19,2.862,0.25c0.169,0.011,0.34,0.025,0.509,0.033c1.084,0.059,2.17,0.1,3.255,0.1    c4.703,0,9.298-0.558,13.778-1.597l6.111,13.658H88.101L94.214,351.148z" fill="#ffcc00"/>
	</g>
</g>
<g>
</g>
<g>
</g>
<g>
</g>
<g>
</g>
<g>
</g>
<g>
</g>
<g>
</g>
<g>
</g>
<g>
</g>
<g>
</g>
<g>
</g>
<g>
</g>
<g>
</g>
<g>
</g>
<g>
</g>
</svg>
