<?xml version="1.0" encoding="iso-8859-1"?>
<!-- Generator: Adobe Illustrator 19.0.0, SVG Export Plug-In . SVG Version: 6.00 Build 0)  -->
<svg xmlns="http://www.w3.org/2000/svg" xmlns:xlink="http://www.w3.org/1999/xlink" version="1.1" id="Capa_1" x="0px" y="0px" viewBox="0 0 512 512" style="enable-background:new 0 0 512 512;" xml:space="preserve" width="512px" height="512px">
<g>
	<g>
		<path d="M141.964,93.091c-16.291-3.491-33.745-20.945-37.236-37.236c0-2.327-1.164-3.491-3.491-5.818    c-2.327-3.491-6.982-4.655-11.636-3.491c-3.491,1.164-6.982,4.655-8.145,9.309C77.964,72.145,60.509,89.6,44.218,93.091    c-5.818,1.164-9.309,5.818-9.309,11.636s3.491,10.473,9.309,11.636c16.291,4.655,33.745,20.945,38.4,38.4    c0,2.327,1.164,3.491,3.491,5.818c1.164,1.164,3.491,2.327,6.982,2.327c1.164,0,2.327,0,3.491,0    c3.491-1.164,6.982-4.655,8.145-8.145c3.491-17.455,20.945-34.909,37.236-38.4c5.818-1.164,9.309-5.818,9.309-11.636    S147.782,94.255,141.964,93.091z M93.091,124.509c-5.818-6.982-12.8-13.964-19.782-19.782c6.982-5.818,13.964-12.8,19.782-19.782    c5.818,6.982,12.8,13.964,19.782,19.782C105.891,110.545,98.909,117.527,93.091,124.509z" fill="#ffcc00"/>
	</g>
</g>
<g>
	<g>
		<path d="M467.782,442.182c-16.291-4.655-33.745-20.945-38.4-38.4c0-2.327-1.164-3.491-3.491-5.818    c-3.491-3.491-6.982-4.655-11.636-3.491c-3.491,1.164-6.982,4.655-8.145,8.145c-4.655,16.291-20.945,33.745-38.4,38.4    c-4.655,1.164-9.309,5.818-9.309,11.636c0,5.818,3.491,10.473,9.309,11.636c16.291,4.655,33.745,20.945,38.4,38.4    c0,2.327,1.164,3.491,3.491,5.818c2.327,2.327,4.655,3.491,8.145,3.491c1.164,0,2.327,0,3.491,0    c3.491-1.164,6.982-4.655,8.145-8.145c4.655-16.291,20.945-33.745,38.4-38.4c4.655-1.164,9.309-5.818,9.309-11.636    S473.6,443.345,467.782,442.182z M418.909,473.6c-5.818-8.146-12.8-15.127-19.782-19.782c8.146-5.818,15.127-12.8,19.782-19.782    c5.818,8.145,12.8,15.127,19.782,19.782C431.709,459.636,424.727,466.618,418.909,473.6z" fill="#ffcc00"/>
	</g>
</g>
<g>
	<g>
		<circle cx="46.545" cy="267.636" r="11.636" fill="#ffcc00"/>
	</g>
</g>
<g>
	<g>
		<circle cx="238.545" cy="87.273" r="17.455" fill="#ffcc00"/>
	</g>
</g>
<g>
	<g>
		<circle cx="314.182" cy="500.364" r="11.636" fill="#ffcc00"/>
	</g>
</g>
<g>
	<g>
		<circle cx="275.782" cy="442.182" r="11.636" fill="#ffcc00"/>
	</g>
</g>
<g>
	<g>
		<circle cx="64" cy="494.545" r="17.455" fill="#ffcc00"/>
	</g>
</g>
<g>
	<g>
		<circle cx="331.636" cy="389.818" r="17.455" fill="#ffcc00"/>
	</g>
</g>
<g>
	<g>
		<circle cx="174.545" cy="34.909" r="11.636" fill="#ffcc00"/>
	</g>
</g>
<g>
	<g>
		<circle cx="81.455" cy="384" r="11.636" fill="#ffcc00"/>
	</g>
</g>
<g>
	<g>
		<path d="M223.418,223.418c-4.655-3.491-12.8-3.491-16.291,2.327c-3.491,4.655-3.491,12.8,2.327,16.291    c8.145,6.982,12.8,15.127,12.8,25.6c0,31.418-62.836,46.545-104.727,46.545c-6.982,0-11.636,4.655-11.636,11.636    c0,6.982,4.655,11.636,11.636,11.636c26.764,0,55.855-4.655,77.964-13.964c40.727-16.291,50.036-39.564,50.036-55.855    C244.364,250.182,237.382,235.055,223.418,223.418z" fill="#ffcc00"/>
	</g>
</g>
<g>
	<g>
		<path d="M195.491,441.018c40.727-16.291,48.873-39.564,48.873-57.018s-6.982-32.582-20.945-44.218    c-4.655-3.491-12.8-3.491-16.291,2.327c-3.491,4.655-3.491,12.8,2.327,16.291c8.145,6.982,12.8,15.127,12.8,25.6    c0,31.418-62.836,46.545-104.727,46.545c-6.982,0-11.636,4.655-11.636,11.636s4.655,11.636,11.636,11.636    c31.418,0,104.727,4.655,104.727,46.545c0,6.982,4.655,11.636,11.636,11.636s11.636-4.655,11.636-11.636    C245.527,481.745,237.382,454.982,195.491,441.018z" fill="#ffcc00"/>
	</g>
</g>
<g>
	<g>
		<path d="M232.727,139.636c-6.982,0-11.636,4.655-11.636,11.636c0,31.418-62.836,46.545-104.727,46.545    c-6.982,0-11.636,4.655-11.636,11.636c0,6.982,4.655,11.636,11.636,11.636c51.2,0,128-18.618,128-69.818    C244.364,144.291,239.709,139.636,232.727,139.636z" fill="#ffcc00"/>
	</g>
</g>
<g>
	<g>
		<path d="M430.545,174.545c-26.764,0-55.855,4.655-77.964,13.964c-41.891,15.127-50.036,38.4-50.036,55.855    s6.982,32.582,20.945,44.218c2.327,1.164,4.655,2.327,6.982,2.327c3.491,0,6.982-1.164,9.309-4.655    c3.491-4.655,3.491-12.8-2.327-16.291c-6.982-6.982-11.636-15.127-11.636-25.6c0-31.418,62.836-46.545,104.727-46.545    c6.982,0,11.636-4.655,11.636-11.636S437.527,174.545,430.545,174.545z" fill="#ffcc00"/>
	</g>
</g>
<g>
	<g>
		<path d="M430.545,58.182c-31.418,0-104.727-4.655-104.727-46.545C325.818,4.655,321.164,0,314.182,0s-11.636,4.655-11.636,11.636    c0,18.618,8.145,45.382,50.036,59.345c-41.891,16.291-50.036,39.564-50.036,57.018s6.982,32.582,20.945,44.218    c2.327,1.164,4.655,2.327,6.982,2.327c3.491,0,6.982-1.164,9.309-4.655c3.491-4.655,3.491-12.8-2.327-16.291    c-6.982-6.982-11.636-15.127-11.636-25.6c0-31.418,62.836-46.545,104.727-46.545c6.982,0,11.636-4.655,11.636-11.636    S437.527,58.182,430.545,58.182z" fill="#ffcc00"/>
	</g>
</g>
<g>
	<g>
		<path d="M430.545,290.909c-51.2,0-128,18.618-128,69.818c0,6.982,4.655,11.636,11.636,11.636s11.636-4.655,11.636-11.636    c0-31.418,62.836-46.545,104.727-46.545c6.982,0,11.636-4.655,11.636-11.636S437.527,290.909,430.545,290.909z" fill="#ffcc00"/>
	</g>
</g>
<g>
</g>
<g>
</g>
<g>
</g>
<g>
</g>
<g>
</g>
<g>
</g>
<g>
</g>
<g>
</g>
<g>
</g>
<g>
</g>
<g>
</g>
<g>
</g>
<g>
</g>
<g>
</g>
<g>
</g>
</svg>
