<svg version="1" xmlns="http://www.w3.org/2000/svg" width="2360" height="2360" viewBox="0 0 1770.000000 1770.000000"><path d="M1 884.5V1769h1769V0H1v884.5zM55.2 19.7c3.1 2.2 5.4 4.9 7.2 8.5C67.1 37.5 68.3 37 42 37c-25.6 0-24.4.4-21.4-6.8 2-4.9 6.9-10 11.9-12.4 3-1.4 5.7-1.8 11-1.6 6 .3 7.7.8 11.7 3.5zm1672.4-1.8c7.8 3.5 13.3 11.8 13.4 19.9 0 3.7-.3 4.3-1.7 3.8-1-.2-11-2.6-22.3-5.1-11.3-2.6-20.6-4.8-20.8-5-.7-.7 3.1-6.9 5.6-9.3 6.6-6.1 17.7-8 25.8-4.3zm-9.8 23c11.7 2.7 21.5 5.1 21.9 5.4 1 1-4.3 8.3-7.9 11-11.9 8.8-28.9 4.5-34.9-8.8-1.8-4-2.6-12.5-1.1-12.5.4 0 10.3 2.2 22 4.9zM65 42.7C64.9 49 56.2 59 49.3 60.9c-13.2 3.7-27.1-4.1-29.8-16.7l-.7-3.2h23.1c21.3 0 23.1.1 23.1 1.7zm835.7 194.5c2.1 1.9 2.3 3 2.3 11.4 0 5.1-.4 9.6-1 9.9-.6.4-.5 1.3.3 2.5.9 1.6.9 2.4-.1 4-.9 1.6-1 2.4 0 3.9 1 1.6.9 2.5-.2 4.6-1.1 2-1.1 3.1-.3 4.4.9 1.4.9 2.1 0 3-.8.8-.7 1.1.4 1.1.7 0 6.8-5 13.4-11 6.9-6.3 12.8-11 14-11 4 0 15 3.1 16.7 4.7 4 3.6.8 13-5.9 17.6-2.2 1.5-6.6 3.6-9.9 4.8-3.2 1.1-6.6 2.3-7.4 2.6-.8.3-2 .5-2.7.4-1.8-.3-22.3 9.7-22.3 10.8 0 2.4-1.6.8-3.7-3.7-1.2-2.6-4.7-7.7-7.8-11.4l-5.6-6.7-1.4-12.3c-.8-6.8-1.5-15-1.5-18.3 0-5.5.3-6.2 3.7-9.7 3.5-3.6 4-3.8 10.2-3.8 5.3 0 6.9.4 8.8 2.2zm-44 24.8c8.7 3.9 16.1 14.2 21.7 29.9l2.7 7.4-2.2 2.3-2.1 2.2-3.7-3.7c-3.7-3.7-21.8-13.5-33.4-18.1-5.1-2-6.1-2.9-8.3-7.2-2.9-5.8-2.5-8.2 1.8-10.4 9.2-4.8 16.7-5.5 23.5-2.4zm-10.2 33c2.2.6 7.9 2.9 12.7 5.3 8.5 4.1 8.7 4.3 8.7 7.8l.1 3.6-8.1 1.2c-9.8 1.5-23.4 5.3-31 8.7-4.1 1.8-6.9 2.4-10.5 2.2l-4.9-.3-1.2-6.5c-2.3-12.5-2.7-11.9 9-17.7 11-5.6 16.4-6.5 25.2-4.3zm109.8 1.7c8.8 2.8 13.7 8.7 13.7 16.6 0 3.6-.6 4.8-3.5 7.7-2.8 2.7-3.7 3.1-4.9 2.1-1.2-1-1.6-.6-2.6 2.4-.6 1.9-1.8 3.5-2.5 3.5s-7.4-3.8-14.8-8.6c-11.9-7.5-13.8-8.4-15.5-7.3-2.7 1.7-12.3-.4-15.9-3.5l-2.6-2.3 5.4-3.1c17.1-9.8 29.4-11.9 43.2-7.5zM899.9 317c2.8 2.9 8.1 12.6 8.1 15 0 .6-1.2 3.6-2.6 6.5-3 6-7.6 11.3-11.2 12.6-3 1.2-10.6-.6-14.4-3.2-4.4-3.2-8.8-11.6-8.8-16.9 0-4.1.4-4.9 6.2-10.7l6.2-6.3h6.7c6.2 0 7 .3 9.8 3zm-60.8 17.9c2.1 1.2 8 3.2 13 4.5l9.1 2.3 4 5.9c2.2 3.2 5.9 9.7 8.2 14.4 3.4 7 4.1 9.7 4.5 15.7.6 12.3-3.1 28.7-13.4 60.3-5.1 15.8-6.7 22.4-8.4 34.5-4.7 33.7-2 45 14.9 62.9 3.9 4 7 7.9 7 8.6 0 .9-1.7 1.1-6.7.8-10.7-.8-20.1-6.1-36-20.4-5.7-5.1-8-8.1-10.7-13.7-3.6-7.4-7.6-21.2-7.7-26.3-.1-4.5.8-12.5 1.5-13.1 1.1-1.1.6-4.3-1-6.7-1.4-2.3-1.3-3.1 1.8-12.3 1.7-5.4 8.1-19.4 14-31.1 11.4-22.4 12.9-27.2 8.4-27.2-2.1 0-2.6.7-3.6 5.1-1.5 6-5.8 10.9-11.6 12.7-2.1.8-9.1 1.6-15.5 1.9l-11.5.6-4.6-5.3c-2.5-2.9-5.9-7.8-7.4-10.9-2.7-5.3-2.9-6.3-2.9-18.1 0-9.5.5-13.8 1.9-17.8 2-6 9.9-18.2 14.4-22.5 2.6-2.5 3.2-2.7 5-1.6 1.8 1.1 3.7.6 14.9-3.8 11.7-4.7 12.9-5 13.6-3.3.5.9 2.6 2.7 4.8 3.9zm125.2 1.6c15.4 3.2 25.7 11.4 25.7 20.5 0 1.1.4 2 1 2 1.6 0 4.1 5.8 5.6 13 1.3 6.5 1.3 7.1-1.1 14.4-7.2 22-14.1 28.2-30.7 27.4-9.2-.4-12.4-1.6-20.7-7.9-2.9-2.2-5.6-3.8-5.9-3.4-.3.3 1.9 5.4 5 11.3 25.6 48.8 26.1 82.2 1.6 107.7-3.8 3.8-7.1 7.8-7.4 8.7-1.4 4.4-10 9.9-23.6 14.9-6.2 2.3-8.4 2.7-9.4 1.8-2.3-1.9-1.6-3.5 4.4-10.4 10.9-12.3 17.3-26.2 18.7-41 .6-6.4.3-8.4-4.4-25-18.9-67.5-20.1-72.3-20.1-81 0-5.2-.4-8.7-1.1-9.1-2.1-1.2-.2-13.1 3.1-20.1 4.2-9 11.7-16.1 23.3-21.8l9.2-4.6 10 .6c5.5.4 13.1 1.3 16.8 2zM692.6 358c17.4 4.4 29.9 13.2 32.9 23.3 1.7 5.9 2 23.3.4 29-1.4 5.3-6 10.1-12.1 12.7-4.2 1.9-7.7 2.4-17 2.8-10.7.4-12 .3-15.2-1.7-4.1-2.6-8.2-10.2-9.2-17.4-.6-4.7-.5-5 3.7-9.4l4.4-4.4-2.4-2c-1.3-1-3.5-1.9-5-1.9-3.9 0-7.4 2.5-30.4 22.1-2 1.7-2.6 2.8-1.9 3.3.7.4 1.2 2 1.2 3.7 0 2.4-.4 2.9-2.4 2.9-2.2 0-2.5.4-2.8 5.7-.2 3.2-1.3 8.8-2.3 12.5-1.8 6.5-1.9 7.1-.1 20 3.4 24.9 9.2 52.3 13.7 64.3 1.3 3.8 3.6 7.4 6 9.7 2.2 2.1 7.3 8.2 11.4 13.7 8.8 11.6 20.7 23 32 30.6 7.6 5.1 21 12.1 27.5 14.3 1.7.6 3.4 2.2 3.9 3.5.9 2.3 1.2 2.3 23.3 3.5l22.3 1.2 13.7-3.4c22.9-5.8 43.6-15 54.8-24.5 8-6.8 18.5-10.9 34-13.2 4.5-.7 8.4-1.8 8.7-2.4.8-2.2 15.8 1.1 18.8 4.2 2.1 2 2.1 22.2.1 26.1-1.8 3.4-5.4 6.8-8.3 7.6-4 1.2-22.5-4.7-24.5-7.8-1.3-1.9-.9-18.5.4-20.6 3.8-6-6.3-1-12.3 6.1-12.8 15.3-22.6 21.9-47.4 31.7-26.2 10.3-33.7 11.7-62.2 10.9-27.7-.7-39.2-3.3-61.1-13.7-15.9-7.6-47.2-29-47.2-32.3 0-2-6.2-10.6-14.2-19.7-4.9-5.6-9.2-12-12.6-18.5-10.7-20.7-24.9-32.6-40.9-34.2-3.2-.3-6.5-1.1-7.3-1.8-1.2-1.1-3.1-.7-10.9 2.2-7.6 2.9-9.8 3.3-11.3 2.4-1.5-1-2.2-.5-4.8 3.6-3.4 5.4-10.6 19.7-11.4 22.8-.4 1.4 1.6 6.4 5.6 14.5l6.3 12.5 4.6.3 4.6.3.6-10.3c.6-12.5 3.5-22.7 7.4-25.7 2.1-1.7 4-2.1 10.3-2.1 10.9 0 13.8.8 17.9 4.9 6 6 8.5 12.3 8.5 21.6.1 7.2-.3 8.7-3.6 15.7-4.5 9.6-10.3 15.9-17.7 19.5-4.8 2.3-7.1 2.8-16.7 3.1-12.9.5-19.5-.7-28.4-4.9-8.5-4-18.3-14-23.2-23.8l-3.8-7.3v-18.2c0-15.9.3-18.8 2.1-23.6 7.6-20.1 17.2-31.4 29.5-35 2.9-.9 11-1.1 27.5-.8 20.1.4 24.3.8 29.6 2.5 9 3 14.4 6.5 20.5 13.3 6.1 6.7 9.2 7.7 10.8 3.4 1.6-4.1 1.3-5.9-5.1-34.8l-6-27.5 3.5-10.6c11.4-34 27.1-52.5 47.4-55.4 10.7-1.6 23.4-1.2 31.8.9zm420-1.1c10.7 1.3 18.1 4 25.8 9.5 12.1 8.7 22 25.5 27.6 47 3.8 14.8 3.9 22.5.5 32.6-1.9 5.6-2.2 7.6-1.3 8.7.8 1 .8 1.7 0 2.5-1.6 1.6-1.5 5.8.1 5.8.7 0 5.8-6.2 11.2-13.8 12.2-16.9 16.8-21.9 26.5-28.7 8.8-6.1 16.6-10.2 26.8-13.9 6.3-2.2 8.9-2.6 18.8-2.6 12.7 0 16.4 1.1 21.8 6.9 1.7 1.7 3.6 3.1 4.3 3.1 1.9 0 1.7 11.3-.3 15.7-4.6 9.5-20.3 14.7-48.4 15.9-8.9.4-15.8 1.2-20.3 2.5-11.1 3.2-26.6 12.9-42.4 26.7-5.1 4.3-6.3 6-6.3 8.3 0 1.6.3 2.9.8 2.9.4 0 3.4-1.8 6.7-4.1 16-10.9 33.3-16.6 55.5-18.4 30.9-2.4 51.7 14.1 60.7 48.4l2.7 10.4-2.1 8.3c-6.3 24.3-16.8 40.2-30.9 46.6-4.1 1.9-7.1 2.3-17.9 2.6-13.6.4-21.2-.6-27.5-3.8-5.1-2.6-12.7-11.2-15.8-17.8-2.4-5.1-2.7-6.9-2.7-16.2.1-12.4 2.3-18.8 8.5-24.4 10.4-9.4 31.2-3.4 35 10.2 1.3 4.7 1.3 19.9 0 20.7-.5.3-1 1.5-1 2.6 0 1.5.7 1.9 3.5 1.9 10.9 0 22-23.6 17.1-36.4-2.3-5.9-9.8-13.1-19.8-18.9-11.6-6.6-15.4-6.6-30.3.7-13 6.3-22.1 12.9-26.8 19.4-1.8 2.6-5.9 9.2-8.9 14.7-16.3 29-39.5 51.3-69.6 66.8-13.7 7.1-22.9 10.4-37.1 13.1-11.3 2.2-15.8 2.6-32.6 2.6-22.3 0-33.7-1.7-50.8-7.6-20-7-36.2-16.4-52.4-30.5-6.8-6-10.7-8.7-11.7-8.3-1.2.4-1.6 0-1.6-1.5 0-1.4.6-2.1 1.9-2.1 1.4 0 1.7-.6 1.3-2.7-.6-3-.4-3 9.5 1.1 3.3 1.4 8.8 3 12.2 3.4 5.9.8 6 .8 5.5-1.4-.5-2-.1-2.3 4.9-3.4 18.6-3.8 40.4-28.6 63-71.8 10.6-20.3 19.2-29.4 35.9-37.8 13.6-6.9 33.2-10.1 54.1-9 12.4.6 17.8 2.1 19.6 5.5.9 1.7.5 2.7-2.9 6.7-8.8 10.1-18.8 27-23.9 40.4-4 10.5-7.3 24-6.2 25.4.8.9-.5 4.2-4.9 12.6-7.2 13.6-14 23-22 30.3-11.6 10.8-22.8 15.8-39.1 17.7-5.2.6-15.3 2-22.6 3-16.5 2.5-15.9 2.5-17.5-.8-1.8-3.8-9.3-8.5-18.4-11.6-5.8-1.9-8.1-2.3-9.1-1.5-.9.8-1.7.8-2.7 0-1-.9-1.6-.8-2.5.3-4.6 5.5 10.5 15.3 30.2 19.7 3.6.8 6.2 1.9 6.8 3 1.6 3.1 10.4 5 25.9 5.6 16.5.6 26.3-.8 41.4-5.8 19-6.3 45.4-22 50.5-30 1.5-2.4 6.3-7.7 10.5-11.7 5.4-5.1 10.3-11.3 16.2-20.3 11.6-17.7 15.2-25.7 12.4-27.4-1.7-1.1-1.2-4.2 5.1-26.7 3.7-13.6 5.7-22.4 5.2-23.1-1.4-1.8-1.6-8.6-.4-10.1 2.3-2.7-9.9-29.1-18.4-39.9-7.2-9-17.8-15.7-25.2-15.7-2.8 0-2.8-.4.2 12.2l2.5 10.2-2.5 3.7c-4.6 7.1-11.9 10.9-20.5 10.9-4 0-16.6-2.1-26.7-4.5-2.3-.5-2.3-.7-2.3-18.5v-18l3.2-6.7c3.9-8 10.6-15.7 16.2-18.5 6.9-3.5 22.2-4.7 38.2-2.9zm-559.7 49.5c11.1 3.8 21.3 10.7 33.9 23.1 8.6 8.5 11.2 11.7 11.2 13.7 0 2.1.6 2.8 2.9 3.3 5 1.1 7.7 5.5 8.7 13.9.5 3.9.3 5.6-.5 5.6-.6 0-6.2-3.2-12.3-7-6.2-3.9-14-7.9-17.3-8.9-6.8-2.1-26.7-4.7-45.5-6-12-.8-12.8-1-19.3-4.7-8.4-4.7-11-8.5-11-15.8 0-9.2 3.7-15.9 10.3-18.5 1.4-.5 9.1-1 17.2-1 12.9-.1 15.4.2 21.7 2.3zm339.9 26.1c5.3 2.8 5.5 3.1 4.2 5.2-1 1.6-.7 4 1.8 13.9 4.6 17.4 6.4 30.1 6.5 45.9.1 12.7-.1 14.4-2 18.2-3.2 5.9-7.5 8.6-14.5 9.1-5.1.4-6.2.1-9.3-2.2-1.9-1.5-4.6-4.7-6.1-7.1-2.5-4.4-2.6-4.8-2.2-18.7.3-11 1.1-17.1 3.2-26.3 4.8-20.8 9-32.4 13.4-37.8 1.8-2.1 1.7-2.1 5-.2zm-170.7 13.3c7.4 2 18.1 6.9 24.3 11.1 12.9 8.7 28.3 30.7 35.5 50.6 4.4 12 29.2 41.4 40.5 48 2.7 1.6 7 3.4 9.5 4 3.8 1 4.7 1.7 5.7 4.6.7 2.3.8 3.8.1 4.6-1.2 1.6-3.9 1.7-5.5.1-.9-.9-1.2-.5-1.2 1.9 0 2.7-.3 3-2.5 2.5-1.4-.2-6.1.6-10.6 1.8-4.4 1.2-8.2 2-8.3 1.8-.1-.2-.9-2-1.8-4-1.9-4.2-5.2-6.2-11.7-7.2-3.4-.5-5.7-1.8-9.8-5.6-3.4-3.2-7.1-5.5-10-6.3-2.8-.8-4.2-1.7-3.5-2.1.7-.4 1.2-2 1.2-3.6 0-2.1-.6-3.1-2.2-3.6-3.2-1-11.3-8.9-18.5-18.2-4.9-6.2-7-8.2-8.9-8.2-1.5 0-2.4.6-2.4 1.5 0 2.5 10.9 19.9 18.2 28.9 12 14.9 26.2 24.6 38.4 26.2 2.9.3 5.9 1.2 6.5 2 .6.8 1.8 1.4 2.5 1.4.8 0 1.4.4 1.4 1 0 .5-.9 1-2 1-1.2 0-3.2 1.2-4.5 2.6l-2.5 2.7-11.8-.7c-23.3-1.4-37.1-4.3-50.7-10.6-10.2-4.7-17.2-10.3-22-17.6-6.5-9.7-17.2-35-32-75.3-3.5-9.4-4.6-11.3-12.2-19.9-4.6-5.2-8.3-10.1-8.3-10.8 0-2 3.5-5.3 6.2-5.8 1.3-.3 3.2-.7 4.3-1 1.1-.3 10.8-.3 21.5-.1 15.6.2 21 .7 27.1 2.3zM513 458.4c0 3.6-6 8-15.1 11-4.3 1.4-8.7 2.6-9.7 2.6-2.3 0-11.4 4.8-19.7 10.3-7.9 5.2-14.2 11.3-16.6 16-1.1 2.1-6.1 9.5-11 16.4-5 6.9-9.3 13.1-9.5 13.7-.5 1.3 3.2 6.6 4.5 6.6.4 0 2.3-2.1 4.2-4.8 19.7-27.4 42.3-48.7 55.2-51.8 2.4-.5 2.7-.3 2.7 1.9 0 1.4.6 2.7 1.4 2.9.9.2-3.1 9.9-13.4 32.1-16.4 35.4-16.8 36-32.3 47.8-9.5 7.2-19.9 12.3-30.7 15-7 1.8-10.4 2-24.8 1.7-13.9-.4-17.8-.8-23.5-2.7-8.6-2.8-10.7-4.8-10.7-10.2 0-4 .6-4.8 11.3-15.8 16.4-17 28.1-32.4 42-55.6 14-23.5 30.6-33.7 62.7-38.8 1.4-.2 9.4-.5 17.8-.6l15.2-.1v2.4zm800.4-.4c21.1 5.4 40.3 21.9 56.7 48.7 10.5 17.3 30.1 43.9 33.7 45.9 1.8.9 5.5 3.9 8.2 6.5 5.9 5.6 6.7 9.9 2.6 13.8-5 4.7-12 6.4-28 6.9-17 .5-26.3-.7-37.8-4.7-10.7-3.8-17.9-8.4-26.8-17.1-10.3-10-15.5-18.3-28-44.8-5.8-12.2-11.1-22.2-11.7-22.2-.9 0-1.3-1.7-1.3-5.3 0-4.4.4-5.8 2.4-7.7l2.5-2.2 8.3 6.4c14.3 11.2 32.3 31.5 47.4 53.6 1.4 2.1 8.2 6.2 10.4 6.2 2.2 0 .7-4.4-4.6-13.2-7.7-12.8-17.7-27.1-23.8-34.3-2.8-3.3-6-7-7.1-8.3-5.7-6.7-12.4-10.4-27.7-15.3-9.4-3.1-15.4-4.5-15.8-3.9-.4.7-1.7.7-3.8-.1-2.8-1-3.2-1.5-3.2-4.9 0-3.7.1-3.8 4.8-4.8 2.6-.5 11.5-1 19.8-1.1 12-.1 16.6.3 22.8 1.9zM648.7 595.8c4.9 2.6 7.2 5.5 8 10.5.5 3.2.2 3.7-3.5 6.2l-4 2.6-163.3-.5c-89.9-.2-165.3-.7-167.7-1.1l-4.3-.7.3-7.7.3-7.6 80.5-1.3c63.6-1 90.7-1 129.3-.1l48.8 1.2 2.2-2.2c2.2-2.2 2.3-2.2 35.7-1.9 32.6.3 33.6.4 37.7 2.6zm560.3-.8c3.3 1.7 5.9 2 16.1 2 24.3 0 81.5-2.1 84-3.1 1.9-.7 5.6-.6 13 .5 15.8 2.2 33.4 2.8 84.6 2.8 25.7-.1 47.6.2 48.6.4 1.4.5 1.7 1.8 1.7 8 0 4.1-.3 7.3-.7 7.1-.5-.3-10.2.1-21.8.9-16.1 1-54.7 1.3-164.4 1.4h-143.5l-2.3-2.2c-4.1-3.8-2.3-11 4.1-16.6l3.7-3.2h36.5c34.5 0 36.7.1 40.4 2zm-286.8 63.9c16.1 6.2 21.6 25.9 12.5 44.4-4.2 8.5-12.7 17.2-24.5 25.1-4 2.6-7.2 5.3-7.2 6 0 3.2 28.1 46.5 30.2 46.6 1.4 0 10.1-15.3 12.4-21.9 5.1-14.7 4.1-20.5-4.1-23.6-4.4-1.7-4.5-1.9-4.5-6.2v-4.5l4.3.8c5.5.9 45.6.9 52.5-.1l5.3-.7-.3 4.8-.3 4.7-6.1 1.3c-13 2.6-17.2 6.5-29.2 26.5-4.3 7.4-10.5 17.4-13.7 22.4l-5.8 8.9 8 7.6c12.8 12.2 25.3 17.5 35.1 15 2.6-.6 7.4-3 10.7-5.2l6-4 3.2 3.9c1.8 2.1 3.3 4.3 3.3 4.9 0 2.9-25.3 23.2-34 27.3-15.1 6.9-31.8 2-50.2-14.8-3.6-3.4-6.9-6.1-7.4-6.1-.4 0-2.5 1.5-4.8 3.4-5.9 4.8-17.8 12.4-24 15.2-12.1 5.5-33.8 7.1-48.2 3.4-21-5.4-33.4-21.1-33.4-42.5 0-14.8 4.5-25 16.5-37.1 7.9-8 18.1-14.8 32.8-22 3.1-1.6 5.7-3.2 5.7-3.7s-1.8-5-4-9.9c-5.5-12.2-7.3-20.3-6.7-30.8.6-11.7 3.4-18.5 10.7-26.4 10.7-11.4 22.9-15.8 42-15.2 8.8.2 12.8.8 17.2 2.5zM618.8 665l-.3 4.4-11.4 2.3c-9.2 1.8-12 2.7-14 4.8l-2.6 2.5-.3 30.4-.3 30.4 6.3.7c7 .7 65.4.3 66.1-.5.3-.3.2-14.1-.2-30.7l-.6-30.3-2.6-2.6c-2.1-2-4.8-3-14-4.8l-11.4-2.2-.3-4.5-.3-4.4h98.2l-.3 4.5-.3 4.5-9.8 2.1c-13.6 3-15.4 3.9-16.9 8.3-1.8 5.1-1.9 141.3-.1 145.3 1.9 4.3 4 5 25.1 9.4 1.9.4 2.2 1.1 2.2 4.7v4.2h-98v-4.2c0-4.8-.7-4.4 13.3-7.3 12.1-2.5 13.4-3.1 14.7-7.8.5-2 1.1-17.8 1.2-35.5l.3-31.7h-72.6l.3 33.4c.3 32 .4 33.6 2.4 36.2 2.3 3.2 6.7 4.8 17.9 6.7l8 1.3.3 4.5.3 4.4H521v-4.2c0-4.8-.9-4.3 15.2-7.8 9.2-1.9 11.6-3.6 12.8-9 1.4-5.9 1.3-134.1-.1-140.5-1.4-6.5-3-7.5-16.6-10.4l-10.8-2.2-.3-4.5-.3-4.4h98.2l-.3 4.5zm545.1 12.1c10.6 25.6 47.7 106.9 49.9 109.1 1.3 1.3 44.1-92.7 52.6-115.7l3.7-10h71l-.3 4.4-.3 4.5-10.6 2.2c-12.8 2.6-14.2 3.3-16 7.6-2 4.8-2.1 143.1-.1 146.6 1.8 3.1 6.6 5 17.7 7.1l9 1.6.3 4.5.3 4.5h-98.2l.3-4.4.3-4.4 11.4-2.3c9.1-1.8 11.9-2.8 14-4.9l2.6-2.5.3-62.7c.1-34.5.1-62.5-.2-62.2-.5.6-18.4 39.7-43.6 95.7l-21.3 47.3-5.1-.3-5.1-.3-13.6-30c-34.2-75.5-51-112-51.9-112.9-.7-.7-1 12.4-1 37.4.1 47.6 1.4 85 3.2 88.8 1.7 3.5 4.7 4.9 14.9 6.7 12.4 2.3 11.9 2.1 11.9 6.8v4.2h-74.8l-.4-4.3c-.3-3.6 0-4.4 1.7-4.7 1.1-.3 5.4-1.2 9.5-2s8.8-2 10.3-2.7c5.7-2.3 5.8-2.9 6.9-53.2.5-25.4.8-57.6.6-71.6-.4-33 .8-30.9-18.7-33.9l-10.6-1.6-.3-4.5-.3-4.5 36.7.1 36.6.1 6.7 16.4zM653.3 894.5c4.4 3.1 4.9 6.5 1.4 11.5-5.2 7.8-11.7 9-49.1 9h-27l-2.7-2.6-2.7-2.6-43.9 1.2c-34.6 1-59.9 1.1-120.3.1-42.1-.6-80.7-1.1-85.7-1.1H314v-16l4.3-.1c2.3-.1 10.1-.5 17.2-.8 7.2-.4 80.7-.8 163.5-.9l150.5-.2 3.8 2.5zm127.8-1c4.7.8 12.8 3 18 4.9 33.2 11.9 48.1 20.4 56.8 32.2 4.7 6.5 13.2 13.4 16.3 13.4 1.9 0 1.9-.1.4-2.5-1.2-1.8-1.6-4.8-1.6-11.4 0-8.5.1-9.1 2.6-11 3.2-2.5 14.4-6.1 19.5-6.4 4.3-.1 8.3 2.2 10.9 6.6 1.7 2.7 2 5.1 2 14.4 0 12.9-.3 13.5-8.3 15.7-8.9 2.4-11.5 2.7-12.1 1.1-.3-.8-1.8-1.5-3.3-1.5-4.9 0-20.8-3.8-27.4-6.5-3.5-1.4-7.7-3.8-9.4-5.4-10.3-9.8-31.9-19.8-57.8-26.6l-12.8-3.4-22.7 1.4c-12.5.8-22.8 1.4-22.8 1.5-.1 0-.4.9-.7 2-.3 1.1-1.8 2.5-3.4 3.1-18.2 7.7-28.3 13.8-41.1 24.9-8.2 7.1-18.4 18.8-23.8 27.4-1.6 2.5-3.4 4.6-4.1 4.6-4.4 0-10.5 15.1-15.2 37.5-3.6 17.4-8.1 45.4-8.1 50.7 0 5.2 6.3 25.8 11 35.5 6.8 14.5 16.5 22.3 27.7 22.3 4.8 0 8.3-1.6 8.3-3.9 0-.4-1.8-2.5-4.1-4.6-4-3.9-4-4.1-3.4-9 .9-7.1 3.5-12.5 8-16.4l3.9-3.4 11.8.5c11.1.5 12.4.8 18.6 3.9 9.6 4.9 11.5 8.7 12 23.5.5 14.9-1.1 20.8-7.6 27.3-5.3 5.3-14.6 10.1-25.4 13.1-9.2 2.5-27.5 2.8-36.3.4-18.9-4.9-33.2-22.4-43.6-53.5l-4-11.8 6.1-27.5c3.3-15.1 6-28.3 6-29.4 0-1-.5-3.3-1.1-5.1-1.6-4.6-4.8-4.2-9 1.3-4.8 6.1-8.8 9.2-16.1 12.5-9.4 4.3-15.8 5.1-40.2 5.1-19.8 0-22.5-.2-26.5-2-10-4.6-18.3-14.6-24.6-30l-3.5-8.5v-36.7l4.2-8.1c10.6-20.4 27.7-29.8 52.2-28.5 14.3.8 22.7 5.3 29.6 16 5.8 8.8 8.4 17.6 7.6 25.2-.8 7.8-4.6 15.6-9.8 20.1l-4.2 3.5h-10.1c-11.1 0-13.3-.9-16-6-2.2-4.2-4.1-14.4-4.4-23-.1-4.1-.4-7.7-.6-8-.2-.3-2.3-.6-4.7-.5h-4.3l-6.2 12.5c-4.4 9-6 13.2-5.6 15 .8 3.3 6.7 15.1 10.9 21.8 2.9 4.4 3.6 5.1 5.1 4.1 1.4-.8 3.9-.3 11.2 2.5 5.8 2.3 9.8 3.3 10.5 2.7.6-.5 4.3-1.4 8.1-2 8.7-1.4 17.4-5.6 24.2-11.6 5.9-5.2 14.8-18 18.8-27 1.4-3.3 4.3-7.8 6.4-10 6.8-7 17-20.4 17.7-23 1.1-4.4 29.3-24.5 45.9-32.8 7.4-3.7 23.5-9.5 31.2-11.3 15-3.5 47.7-4.5 62.4-1.9zm274.8 1.1c14.9 2.8 21.7 5.1 36 12.2 32.4 16.1 59.2 42.2 74.6 72.8 6.7 13.3 17.5 22.5 35.5 30.6 11.4 5.1 16.7 5.1 25.9.3 10.5-5.6 17.6-11.8 20.7-18.1 2.4-4.9 2.6-6.2 2.1-12.2-1.3-13-10.4-26-18.3-26-2.6 0-3.4.4-3.4 1.8 0 1.1.5 2.2 1 2.5 1.4.9 1.2 16.9-.2 21.8-3.3 11-19.7 17.1-31.5 11.8-7.4-3.4-12.3-14.4-12.3-27.7 0-10.9 6.1-24.6 14.3-32 14.4-13 36.4-8.6 57.9 11.5 9.4 8.8 15.5 17 20.5 27.8 4.8 10.2 4.9 16 .4 29.2-4.6 13.6-8.6 20.7-16.2 28.4-13.2 13.2-28.7 17.1-54.2 13.2-15.5-2.3-30.6-8.2-43.3-16.7-7.6-5.1-8.4-5.3-8.4-1.7 0 3.5 2.1 5.7 15.5 15.9 12.5 9.6 24.8 16.7 32.5 19 3.9 1.1 11.4 2.1 19 2.5 30.3 1.4 45.2 6 50 15.5 2.7 5.2 2.8 15.8.3 16.7-1 .4-3.7 2.3-6.1 4.4-5.4 4.7-12.2 6.3-23.7 5.7-12.9-.7-26.6-6.8-47.9-21.4-3.3-2.2-15.6-17.5-24.6-30.7-3-4.2-6-7.7-6.7-7.7-2.2 0-1.5 8.9 1.2 17 3.4 10 3.3 17.7-.5 32.6-7.3 29.2-21.5 47.6-41.9 54.6-5.9 2.1-8.4 2.3-25.1 2.3-16.9 0-18.9-.2-23.2-2.2-6.4-2.9-13.3-10.4-17.4-18.9l-3.4-7.1v-18.2c0-9.9.2-18.1.4-18.1s5.9-1.2 12.7-2.6c19.7-4 29-1.9 35.9 8.1l3.1 4.4-2.6 10c-1.4 5.5-2.5 10.4-2.5 11 0 1.9 6.3 1.2 11.7-1.3 2.9-1.4 7.3-4.4 9.8-6.7 8.1-7.4 18.4-25.1 24-40.8 1.1-3.3 1.2-5.2.4-8.4-2.5-10.5-10.9-52.1-10.9-54.3 0-1.3.5-2.4 1-2.4 2 0 .9-5-2.5-11.5-7.8-14.6-16.8-27.1-27.6-38.2-6-6.1-10.9-11.7-10.9-12.5 0-.7-4.2-4.1-9.3-7.5-28.5-19.1-54.8-27.3-82.2-25.8-15 .8-21.2 2.1-23.9 5-1.3 1.3-5.1 3.1-9.7 4.3-16.1 4.5-25.7 9.4-28.1 14.7-1.4 3.1.6 6.2 2.8 4.4 1.1-.9 1.8-.8 2.9.1 3.6 3 27.5-8.8 27.5-13.6 0-2.4 2.1-2.5 15.7-.4 7.6 1.2 17.8 2.5 22.8 3 17.3 1.7 29.8 7.5 42.1 19.5 8.1 8 13.2 15.3 21 29.7 3.8 7.1 5.1 10.5 4.4 11.3-1.3 1.6 2.6 17.2 7.3 28.6 4.4 11 12.8 25.2 20.6 34.9 6.6 8.2 6.7 9.5.8 12.7-2.7 1.5-5.9 1.8-22.2 1.8-27.6 0-41.7-3.6-57.3-14.5-11.1-7.8-16.7-14.8-27.1-34.2-23.6-43.8-44.4-67.2-62.1-69.5-4.3-.6-6.3-2.8-3.9-4.4.9-.6 0-.9-2.7-.9-4.4 0-15.2 3-20.1 5.5-1.5.8-3.4 1.5-4 1.5-1.6 0-1.7-2.2-.1-3.8.9-.9.6-1.2-1.5-1.2s-2.7-.5-2.7-2.1c0-1.5.4-1.9 1.6-1.5 1.1.4 4.7-2.1 11.4-7.8 21.8-18.9 44.8-30.4 72.5-36.2 9.2-1.9 14.2-2.3 30-2.3 16.5-.1 20.9.2 32.4 2.5zm375.6-1.1c12.7.8 23.6 1.5 24.3 1.5.8 0 1.2 2.2 1.2 7.5v7.5h-57.2c-31.5 0-81.9.7-111.9 1.5s-76.8 1.9-103.9 2.4c-48.1 1-49.4.9-53.2-1-4.3-2.2-7.5-6.6-8.4-11.7-.5-2.8-.2-3.8 2.2-6.3l2.8-2.9h140.5c112 0 145.3.3 163.6 1.5zm-628.9 31c1.3 1.4 3.2 2.5 4.4 2.5 1.1 0 2 .6 2 1.4 0 2.1 18.7 7.1 20.6 5.6 1.2-1 1.4-.7 1.4 1.9 0 2.8.2 3 1.9 2 2.5-1.6 5.1-.4 5 2.3-.1 4.6-1.5 6-7.1 7.8-3 .9-7.7 3.2-10.4 5-11.7 8.1-34.1 35.1-38.2 46.2-3.9 10.4-12 25.4-18.2 33.6-7.6 10.1-17.1 18.2-27.5 23.2-13.3 6.5-18.8 7.4-44 7.5-23.3 0-26.1-.5-29.1-5-1.2-1.8-.5-2.9 7.6-12.2 8.8-9.8 9.1-10.4 13.4-22.5 11.9-33.6 24.3-62.6 30.9-72.6 12.5-18.7 36.1-27.1 81.6-29.1 2.4-.1 4 .6 5.7 2.4zM422.9 929c14.2 3.4 33 14.8 44.9 27.2 4.3 4.5 33.5 67.1 31.5 67.6-.7.2-1.3 1.4-1.3 2.8 0 3.3-2.2 3.1-9.7-.6-11.5-5.7-27.3-21.5-44.9-44.6l-7.1-9.3-2.8 2.9c-3.3 3.4-4.1 1.6 8.6 19.2 4.4 6.1 8.6 12.6 9.4 14.4 3.5 8.5 24.8 23.4 38.4 26.9 15.2 3.9 23.1 8.4 23.1 13.2v2.5l-19.2-.5c-22.9-.6-31.4-2.3-45.6-9.3-13.7-6.8-23-15.9-32.3-31.7-12.9-21.8-24.6-37.3-41.6-54.8-9.7-9.9-10.3-10.8-10.3-14.7 0-6.1 2.6-8.1 14.3-11.2 10.5-2.7 33.2-2.7 44.6 0zm982.6.4c7.7 2.8 11.5 6 11.5 10 0 4.3-2.4 7.3-10.8 13.4-5.7 4.1-8.6 7.5-19 22.3-6.7 9.6-14.8 21.6-18 26.6-16.3 26.4-35.3 42.7-55.7 47.8-7.1 1.8-34.7 2.1-42.5.4-4.9-1.1-5-1.1-5-4.9 0-3.4.4-3.9 3.2-4.9 2.3-.8 3.4-.8 3.8 0 .5.7 5.5-.5 15.4-3.7 16.8-5.3 22.4-8.8 31.7-19.5 15.6-17.9 36.8-51.9 32.4-51.9-.3 0-2.7 1.1-5.3 2.4-3.5 1.8-5.9 4-8.6 8.3-11.1 16.8-31.8 39.6-45.2 49.9l-7.4 5.7-2.5-2.3c-1.9-1.8-2.5-3.4-2.5-6.8 0-2.7.6-4.9 1.4-5.6.8-.6 5.8-10.3 11.1-21.6s11.3-23.4 13.5-27c13.1-22.1 33.5-36.2 57.5-39.9 10-1.6 35.2-.7 41 1.3zm-488.6 34c4.9 1.9 10.7 4.6 12.9 6 3.7 2.3 8.2 7 8.2 8.6 0 .4 3.1 3.9 6.9 7.8 5.2 5.2 8 9.2 11 15.4 12 25 8.7 50.3-12 90.9-3.2 6.4-5.9 12.1-5.9 12.8 0 .7 1.9-.3 4.3-2.2 2.3-1.9 6.4-4.7 9.1-6.1 4.4-2.3 6-2.6 15.4-2.6 8.8 0 11 .3 13.8 2.1 4.9 3 11 12.8 14.3 23.3 2.9 9 3 9.5 1.6 15.9-1.4 6.8-3.9 12.7-5.4 12.7-.5 0-1.1 1.7-1.5 3.8-2 12.7-17.4 20.1-42.1 20.5l-12 .2-7.6-3.8c-10.9-5.4-18-12.2-22.5-21.1-3.8-7.8-5.7-18.7-3.5-20 .7-.5 1.1-4 1.1-9.4 0-8.1.8-11.8 12.7-54.6l12.7-45.9-1.3-8.4c-2.1-15-8-27.3-18.5-39-5.9-6.5-6.3-7.2-4.4-9.1 1.8-1.8 3-1.5 12.7 2.2zm-38.9-.3c0 .6-3.4 4.7-7.5 9.1-5.5 5.9-8.7 10.3-11.7 16.7-4 8.1-4.3 9.2-4.6 18.8-.7 17.7 2.7 38.1 10.3 61.3 12.3 37.4 15.8 57.5 12 69.1-2 6.2-6.1 13.9-11.7 22-3.7 5.4-4.1 5.6-11.1 7.3-8.9 2-16.9 5.7-18.9 8.5-1.5 2.1-1.5 2.1-14.3-3.1-11.2-4.5-13-5-14.8-3.8-2 1.2-2.6.8-7.4-4.5-6.2-6.9-11.7-17.1-13.3-25.2-.7-3.1-1-9.9-.8-15.2.5-10.8 2.3-15.5 9.8-25l4.2-5.3 13.6.4c10.6.3 14.4.7 16.9 2.1 5 2.7 8.1 6.6 9.3 11.9 1 4.1 1.6 4.8 3.6 4.8 4.4 0 2.9-4.7-7.9-26.1-9.9-19.5-14.3-29.7-16.6-38.3-.8-3.2-.8-4.3.4-5.6 1.8-2 2-6.1.3-7.8-.8-.8-.9-1.2-.1-1.2s.7-1.5-.2-5.1c-1.3-4.7-1.2-5.9 1-14.3 4.8-18.8 7.6-23.6 21.4-35.8 8.5-7.6 15.5-12 23.2-14.8 5.9-2.1 14.9-2.7 14.9-.9zm17.6 20.8c8.7 4 11.2 13.1 9.5 34.4-1.2 16.1-2.9 26-6.8 39.6-2.1 7.7-2.4 9.7-1.4 11.3 1.3 2.1.5 3.1-4.6 5.9-1.9 1-2.6.9-4.4-.7-4.4-3.8-9.4-18.8-14.3-42.2-2-9.3-2.6-15.2-2.6-24.5 0-11.9.1-12.5 3-17 5.3-8.4 12.8-10.8 21.6-6.8zm-286 62.7c-1 8.6-4.9 14.4-9.8 14.4-1.3 0-1.8.8-1.8 2.7 0 2.3-2.4 5.2-12.3 14.8-16.7 16.3-27.3 22.3-43.3 24.6-10.7 1.5-24.5.5-30.1-2.2-6.5-3.2-9.2-9.8-8.5-21.1.2-3.5 6.1-10.1 10.5-11.8 1.7-.8 3.9-1.9 4.8-2.6.9-.9 7-1.7 16.5-2.4 18-1.3 35-3.5 43-5.6 3.7-.9 10.3-4.2 17.9-8.9 6.6-4.1 12.4-7.5 12.9-7.5s.6 2.4.2 5.6zm289.3 112.9c4.6 4.2 9.5 14.5 8.6 17.8-1.3 4-6.6 12.6-8.8 14.2-1.4 1-4.5 1.5-8.6 1.5h-6.5l-6.3-6.2c-5.5-5.5-6.3-6.7-6.3-10.1 0-4.9 1.9-9.4 6.1-14.2 4-4.6 7.9-6.4 13.6-6.5 3.5 0 5 .6 8.2 3.5zm60.1 21.9c.8 2.4 1.6 3.3 2.8 2.9 1-.2 3 1 5.1 3.1 3.1 3.2 3.3 3.9 2.9 8.4-.3 2.8-1.4 6.3-2.6 8-4.7 6.5-20.7 10.8-32 8.4-5.8-1.2-24.4-9.6-26.3-11.8-2.7-3.2 12.8-8.9 17.5-6.4 2 1 3.7.2 15.7-7.4 7.4-4.7 13.9-8.6 14.6-8.6.6 0 1.6 1.5 2.3 3.4zm-128.8 4.6c7.3 3.4 22.5 7.5 31.7 8.6l6.1.7v3.6c0 3-.5 3.9-2.7 4.9-1.6.6-4.8 2.3-7.3 3.7-6.6 3.7-13.5 5.5-20.8 5.5-5.9 0-7.4-.5-16.3-5.2-11.1-5.9-10.8-5.4-8.8-16.4 1.6-8.7 1.3-8.4 6.8-8.4 3.3 0 6.9.9 11.3 3zm49.1 19.8c1.6 1.7 1.6 2.3-.4 8.3-2.6 7.9-7.9 18.3-12 23.2-3.7 4.6-10.7 8.7-16.2 9.8-7 1.3-21.7-4.7-21.7-8.8 0-.7 1.1-3.5 2.4-6.1 1.9-3.7 3.2-5 6.2-6.1 10.2-3.5 30.3-14.2 34-17.9 4.5-4.5 5.5-4.8 7.7-2.4zm18.7.5c0 1.5 20.6 11.1 22.4 10.4.8-.3 1.7-.2 2.2.3.5.4 2.7 1.3 4.9 2 12.7 4 20.5 11.2 20.5 18.9 0 4.9-2.9 6.6-15.3 9l-4.6.8-12.5-11.3c-6.8-6.3-13-11.4-13.7-11.4-1 0-1 .3-.1 1.2.8.8.8 1.7.1 3.1-.8 1.4-.8 2.6.2 4.4 1 1.9 1 2.8.1 4.4-1 1.5-.9 2.3 0 3.9 1 1.6 1 2.4.1 4-.8 1.2-.9 2.1-.3 2.5.6.3 1 4.7 1 9.7 0 8-.3 9.5-2.2 11.5-1.8 1.9-3.1 2.3-8.7 2.3-6.2 0-6.7-.2-10.3-3.7-3.6-3.5-3.8-4.1-3.8-9.8 0-3.3.7-11.7 1.5-18.5 1.4-11.2 1.9-12.8 4.4-15.5 4.9-5.3 10-12.5 11.1-16.1 1.1-3.3 3-4.7 3-2.1zM592.1 1478l3.7 1 .4 7.6c.3 7.4.3 7.5-2 7.2-1.8-.2-2.8-1.3-3.8-4.3-1.5-4.6-3.4-6.2-8-7.1-6.5-1.2-11.6 3.8-10 10 .5 2.1 2.5 3.5 9.9 7.2 13.3 6.7 16.7 10.4 16.7 18.4 0 12.7-12.8 19.6-29.7 16-7.4-1.6-7.4-1.6-6.7-10.3.6-7 .9-7.7 2.8-7.7 1.7 0 2.4.9 3.4 4.5 1.6 6 5.8 8.8 12.2 8.2 7.1-.8 10.8-6.4 7.8-12-1.6-3.1-3.3-4.3-12.5-8.7-10.1-5-13.3-8.5-13.3-14.6 0-13.3 12.4-19.9 29.1-15.4zm499.1.1l3.6.9.4 7.5c.3 7.2.2 7.5-2 7.5-1.3 0-2.5-.8-2.8-1.8-2-6.2-3-7.5-6.3-8.9-6.5-2.7-13.1.4-13.1 6.2 0 4.5 1.4 5.8 11.7 11 10.1 5.1 13.9 8.7 14.9 14 2.7 14.5-10.8 23.4-29.3 19.5-7.6-1.7-7.7-1.7-6.8-10.4.6-7.1.8-7.6 3-7.6 1.8 0 2.4.7 2.9 3.5.4 1.9 1.8 4.7 3.1 6.2 2 2.4 3 2.8 8 2.8s6-.3 8.2-2.9c1.9-2.3 2.3-3.6 1.9-6-.9-4.4-3.6-6.7-13-11.5-10.5-5.2-13.6-8.6-13.6-14.7 0-13.4 12.1-19.7 29.2-15.3zm519.1.1l3.7 1.1v7.4c0 7-.1 7.3-2.3 7.3-1.9 0-2.6-.8-3.5-3.8-1.7-5.4-4.3-7.5-9.8-7.6-3.8-.1-5 .4-7 2.7-4.7 5.5-2.4 9.3 9.2 14.9 4.6 2.1 9.7 5.2 11.3 6.7 5.6 5.2 6.1 15 1.1 21.4-4.9 6.2-16.7 8.4-27.8 5.2l-5.2-1.6v-7.9c0-7.8.1-8 2.5-8 2 0 2.6.7 3.5 3.9 2 7.7 9.9 11.2 16.9 7.6 3.1-1.6 4.1-3.3 4.1-7.4 0-4.4-2.5-6.8-12.8-12.1-13.6-7.1-16.5-12-12.4-21.3s14.8-12.5 28.5-8.5zm-1408.9 3.4c.3 2.6.6 6.2.6 8.1 0 3-.3 3.4-2.2 3.1-1.4-.2-2.5-1.4-3.1-3.3-1.7-5.3-2.2-5.5-12.8-5.5H174v18h5.4c7.6 0 10.2-1.2 10.9-4.9.5-2.2 1.2-3.1 2.7-3.1 1.9 0 2 .6 2 10.5 0 9.7-.2 10.5-1.9 10.5-1.4 0-2.1-1-2.8-3.8l-.9-3.7-7.7-.3-7.7-.3v21.2l10.8-.3 10.7-.3 3-4.7c2.1-3.3 3.7-4.7 5.3-4.7 2.5-.1 2.4.8-.8 10.4l-1.7 5-22.6.3c-21.8.2-22.7.2-22.7-1.7 0-2 1.8-3.1 5-3.1 1.1 0 2.4-.9 3-1.9 1.1-2.1 1.4-37.9.4-41.8-.4-1.6-1.6-2.3-4.5-2.8s-3.9-1.1-3.9-2.6c0-1.8 1.2-1.9 21.8-2.2 11.9-.1 22-.3 22.3-.5.4-.1.9 1.9 1.3 4.4zm55.6-2.3c0 1.6-.9 2.6-3 3.4l-3 1.1 5.1 14.4c2.8 7.8 5.6 15.6 6.1 17.2l1.1 2.8 1.3-3.1c2.4-5.7 10.4-29.2 10.4-30.6 0-.7-1.3-1.8-3-2.4-1.6-.5-3-1.7-3-2.5 0-1.3 1.6-1.6 10-1.6 8.9 0 10 .2 10 1.7 0 1-1.5 2.5-3.2 3.3-3.5 1.7-3.1.8-14.3 31.5-6.6 17.9-7.6 20-9.6 20s-2.8-1.4-6.2-11c-2.2-6.1-6.5-17.3-9.6-25-5.2-13.1-5.8-14.1-9.3-15.8-7-3.4-5-4.6 8-5 6.4-.1 11.8-.4 12-.5.1-.1.2.8.2 2.1zm198 .1c0 2-.6 2.5-4 3.1-5.1.9-5.2 1.3-4.8 29.3.3 22.4.2 23.2-3.2 23.2-.4 0-6.9-7.5-14.3-16.8-7.5-9.2-15.4-18.7-17.6-21.2l-4-4.5-.1 16.3c0 16.9.6 20.2 4 20.2 3.2 0 5 1.1 5 3.1 0 1.8-.9 1.9-12 1.9-11.3 0-12-.1-12-2 0-1.3.9-2.2 2.8-2.6 1.5-.3 3.2-.7 3.8-.9 2.4-.7 3.4-42.4 1.1-44.3-.7-.6-3.2-1.4-5.5-1.8-3.2-.5-4.2-1.1-4.2-2.5 0-1.7.9-1.9 8.8-1.9h8.9l12.4 15.1c6.8 8.3 14 17.1 15.9 19.5l3.5 4.5.3-12.8c.2-7 0-14.6-.3-16.9-.5-3.7-.9-4.1-4.3-5-2.2-.5-3.8-1.6-4-2.6-.3-1.5.9-1.8 11-2.1 6.2-.1 11.6-.4 12.1-.5.4-.1.7.9.7 2.2zm77.2 7.6c.3 7.1.2 7.5-1.9 7.8-1.8.3-2.4-.4-3.4-4-1.8-6.3-2.5-6.8-9-6.8H512v44l4.5 1.1c3.3.8 4.5 1.6 4.5 3 0 1.8-1 1.9-14.1 1.9-12.8 0-14-.2-13.7-1.8.2-1 2-2.2 4.6-3l4.2-1.4v-43.9l-6.2.3-6.3.3-1.6 5c-1.2 3.7-2.1 5.1-3.7 5.3-1.9.3-2.2-.1-2.2-3 0-1.8.3-5.7.6-8.5l.7-5.3 23.1-.2c14.4-.2 23.5.1 24.3.7.6.5 1.3 4.4 1.5 8.5zm226.5 6.8c13.2 30.8 14.9 33.9 18.8 35.2 2.4.8 3.5 1.8 3.5 3.1 0 1.8-.8 1.9-12 1.9-11.1 0-12-.1-12-1.9 0-1.2 1.1-2.3 3.1-3 1.9-.6 2.9-1.6 2.6-2.3-.3-.7-1.3-3.2-2.2-5.6l-1.7-4.2H737.5l-1.7 4.3c-3.1 7.7-3.1 7.4.1 8 2.2.5 3.1 1.2 3.1 2.7 0 1.9-.6 2-10 2-9.2 0-10-.2-10-1.9 0-1.2 1.1-2.3 3.1-3 3.4-1.2 5.6-5.5 18.5-35.8 9.1-21.5 8.8-21.5 18.1.5zm111.3-14.2c0 1.5-.9 2.3-3.7 3l-3.8.9-.8 11c-.4 6-.5 17.4-.2 25.2.5 13.8.5 14.2-1.6 14.8-1.1.4-2.4.3-2.8-.2-.4-.4-3.6-4.4-7.1-8.8-3.6-4.4-10.9-13.4-16.4-20-5.5-6.6-10.1-12.2-10.3-12.4-1.2-1.6-1.4 3-.8 17.9.5 11.3 1.1 17.3 1.9 17.5.6.2 2.3.6 3.9.9 1.8.4 2.7 1.3 2.7 2.6 0 1.9-.7 2-12 2s-12-.1-12-2c0-1.3.9-2.2 2.8-2.6 1.5-.3 3.2-.7 3.9-.9 1.9-.6 2.4-7.7 2.1-26.9l-.3-18-5-1.1c-3.4-.7-5.1-1.6-5.3-2.8-.3-1.5.6-1.7 8.7-1.7h9l15.2 18.5c8.3 10.2 15.5 18.8 16 19.1.6.3.8-6.1.7-15.7l-.3-16.3-3.5-.9c-4.1-1-5.4-2.1-4.8-3.9.4-1 3.5-1.3 12.2-1.3 11.1 0 11.6.1 11.6 2.1zm76.1.5c6.7 3.1 11.9 12.8 11.9 22.4 0 9.8-5.5 20.2-13.5 25.7-6.8 4.6-13.4 5.8-31.3 5.8-15.2 0-16.2-.1-16.2-1.9 0-1.4 1.2-2.2 4.5-3l4.5-1.1-.2-22.3-.3-22.2-4.2-.9c-3-.6-4.3-1.4-4.3-2.6 0-.9.2-1.9.4-2.1.2-.2 10.5-.2 22.8.1 17.7.4 23 .8 25.9 2.1zm207.9-.1c0 1.3-1 2-4 2.5-3.7.6-3.9.9-4.6 5.1-1.2 8.1 0 30.6 1.9 34.1 3.3 6.2 16.2 8.3 22.6 3.6 4.3-3.3 5.2-7.8 4.9-25.7l-.3-16.1-3.7-.9c-2.7-.7-3.8-1.5-3.8-2.8 0-1.6 1.1-1.8 12-1.8 6.6 0 12 .3 12 .7-.1 1.8-1.7 3.2-5 4l-3.5.9-.5 18.5c-.5 15.1-.9 19.1-2.4 22.2-3.4 7-10.6 10.7-21 10.7-7.8 0-12.7-1.4-16.6-4.6-5.2-4.4-5.5-5.5-6-26.8l-.5-19.9-4-1.1c-2.3-.7-4.1-1.9-4.3-2.8-.3-1.6 1.1-1.8 12.5-2 7-.2 13.1-.2 13.6 0 .4.2.7 1.2.7 2.2zm102.8-.2c3.5 2 6.2 7.2 6.2 11.9 0 11.5-7.8 18.2-21.2 18.3h-6.8v8.4c0 9.3.4 10 6.3 11 2.8.5 3.7 1.2 3.7 2.6 0 1.9-.8 2-14 2-13.3 0-14-.1-14-2 0-1.3.9-2.2 2.8-2.6 6.8-1.5 6.2.6 6.2-23.5V1484l-4.5-1.2c-3-.8-4.5-1.8-4.5-2.8 0-.9.2-1.9.4-2.1.2-.2 8.7-.2 18.8.1 12.4.3 19 .9 20.6 1.8zm74.5.5c4.3 2.8 6.1 6.4 6.1 12.2 0 10.6-7 16.6-20.1 17.3l-7.3.4v8.8c0 9.7-.4 9.1 6.8 10.5 2.3.5 3.2 1.2 3.2 2.6 0 1.8-.9 1.9-14 1.9-13.2 0-14-.1-14-2 0-1.4 1.1-2.2 4-3l4-1.1.1-10.2c0-5.6.2-11.4.4-12.8.2-1.4 0-6.7-.3-11.9l-.7-9.3-3.8-1.1c-2.1-.6-3.8-1.4-3.8-1.9.1-.4.1-1.3.1-2 0-.9 4.1-1.1 18.3-.7 15.2.4 18.7.8 21 2.3zm62.7-.4c0 1.3-1.2 2-4.7 2.7l-4.8.9v44l9.2.3c5.1.1 10.1-.2 11.1-.7 1-.5 3-3 4.3-5.5 1.8-3.4 3-4.6 4.6-4.6 2.9 0 2.9.9-.2 9.5l-2.4 7-22.6.3c-21.5.2-22.5.2-22.5-1.7 0-1.4 1.1-2.2 4.5-3l4.5-1.1-.2-22.3-.3-22.2-4.2-.9c-3-.6-4.3-1.4-4.3-2.6 0-.9.2-1.9.4-2.1.2-.2 6.5-.3 14-.1 12.3.3 13.6.5 13.6 2.1zm-1035 5.6c0 6.7-.2 7.5-1.9 7.5-1.4 0-2.3-1.2-3.3-4.3l-1.5-4.2h-20.8v17l4.5.3c2.4.2 5.9.1 7.6-.3 2.7-.5 3.3-1.1 3.8-4 .5-2.7 1.2-3.5 2.9-3.5 2.1 0 2.2.3 2.2 10.5 0 10.1-.1 10.5-2.1 10.5-1.7 0-2.3-.8-2.8-3.4-.8-4.1-1.9-4.6-10.2-4.6h-6.5l.3 10.2.3 10.3 9.9.3c10.8.3 11.4.1 15.2-6 1.5-2.3 3.2-3.8 4.4-3.8 2.5 0 2.5.1-.3 8.6l-2.4 6.9-22.6.3c-22.1.2-22.7.2-22.7-1.8 0-1.3.9-2.2 2.8-2.6 6.8-1.5 6.3.7 6-23.7l-.3-22.2-4.2-.9c-3.2-.7-4.3-1.4-4.3-2.7 0-1.8 1.3-1.9 23-1.9h23v7.5zm1112-5.6c0 1.3-1.1 2-4.2 2.7l-4.3.9v22.5c0 21.7.1 22.5 2 22.8 5.5.8 6.5 1.3 6.5 3.2 0 1.9-.7 2-13.5 2s-13.5-.1-13.5-2c0-1.3.9-2.1 2.8-2.5 5.9-1.3 5.7-.4 5.7-24.1v-21.9l-4.2-.9c-3.2-.7-4.3-1.4-4.3-2.7 0-1.8 1-1.9 13.5-1.9s13.5.1 13.5 1.9zm73.2 4.1c0 3.3.1 6.6.2 7.2.1.7-.8 1.4-1.9 1.6-1.6.2-2.4-.7-3.5-4l-1.5-4.3-10.2-.3-10.3-.3-.1 4.8c-.5 14-.8 12.8 3.1 13.1 1.9.2 5.4.1 7.7-.3 3.9-.6 4.3-.9 4.9-4.1.5-2.7 1.1-3.4 3-3.4 2.4 0 2.4.1 2.4 10.5v10.5h-2.5c-1.9 0-2.5-.5-2.5-2.1 0-4.8-1.6-5.9-9-5.9-3.8 0-7.1.4-7.5.9-.3.6-.2 5.3.1 10.5l.7 9.6h9.7c10.6 0 11.4-.4 14.9-6.3 1.6-2.6 3-3.7 4.6-3.7h2.3l-2.6 8-2.6 8h-22.8c-22.1 0-22.8-.1-22.8-2 0-1.3.9-2.2 2.8-2.6 6.8-1.5 6.3.7 6-23.6l-.3-22.1-4-1.1c-2.4-.7-4.1-1.9-4.3-2.9-.3-1.6 1.4-1.7 22.7-1.7h23.1l.2 6zM51.5 1696.9c5.1 2.3 9.3 6.5 11.6 11.6 3.6 7.9 4.8 7.5-21.1 7.5-25.6 0-24.4.4-21.4-6.8 2-4.9 7-10 11.9-12.3 5.2-2.4 13.8-2.4 19 0zm1675.3-.3c2 .8 5.2 2.9 7 4.7 3.3 3.1 6.7 8.5 6 9.3-.4.3-43.5 10.4-44.5 10.4-.2 0-.3-1.8-.3-4 0-8.1 5.6-16.4 13.5-20.1 4.9-2.3 13.3-2.4 18.3-.3zm14.2 22.4c0 11.8-10.5 21.9-22.8 22-6.4 0-11.6-2-16-6.3-3.3-3.1-6.7-8.5-6-9.3.5-.4 41.4-10.1 43.6-10.3.8-.1 1.2 1.3 1.2 3.9zm-1676 2.7c-.1 3-3.5 9.6-6.6 12.7-8.5 8.5-23.3 8.8-31.7.8-3.7-3.5-6.3-7.9-7.2-12l-.7-3.2h23.1c21.3 0 23.1.1 23.1 1.7z"/><path d="M817.3 360.2c-5.3 1.7-4 6.9 2.2 9.3 1.1.4 4.7 1 8 1.4l6 .6 2.5 7.2 2.5 7.3h3.8c4.4 0 4.4-.1.1-9.7-5.8-13.3-15.3-19.4-25.1-16.1zM948.9 361c-2 1.1-5.5 4-7.8 6.6-4.2 4.8-5.8 9.5-4.7 13.9.5 2 .3 2.5-1.4 2.5-1.6 0-2 .7-2 3 0 3 .3 2.8 8.3-5.4 8.3-8.5 18-14.6 23.4-14.6 4.6 0 2.9-3.7-2.7-5.8-5.6-2.1-9.4-2.1-13.1-.2zM1036.3 508.2c-4.5 5-14.7 19.5-22.7 32.5l-5.7 9.2-15.8 9.1c-21 12-19.9 11.1-18.1 14.6l1.6 3.2c.1.2 4.4-1.8 9.5-4.4 7.5-3.7 9.6-4.4 11.1-3.5 1.5.9 3 0 10.1-6.3 9.3-8.3 12.4-12 16.5-19.8 1.5-2.9 5.4-9.7 8.5-15.1 5.5-9.4 10.7-20.5 10.7-22.7 0-2-1.8-1-5.7 3.2zM892.4 669.9c-6 3.6-8.2 16-5 28.1 1.8 6.9 8.5 23 9.6 23 .4 0 3.1-2.1 5.9-4.6 9.4-8.4 14-22.5 11.1-34.3-2.7-11.5-13.1-17.4-21.6-12.2zM860.9 755.9c-11.2 8.3-16.1 17.6-16.3 31.1-.1 6.7.3 8.4 3.2 14.2 3.5 7.1 10.4 14.2 16.6 17.2 9.4 4.4 21.7 3.8 33.1-1.8 12.3-6.1 12.1-4.6 2.3-17.7-9.6-12.9-14.6-20.5-23.9-36.6-3.5-6.2-6.8-11.3-7.4-11.3-.5 0-4 2.2-7.6 4.9zM974.3 932.7c-.7 1.5-1.3 3.2-1.3 3.7 0 .6 7.7 5.4 16.9 10.6l16.9 9.5 12.8 19.2c12.8 19.3 22.4 30.8 22.4 26.7 0-2.5-6.3-15.6-13.3-27.6-3-5.1-6.2-10.9-7.1-13-1-2-6.6-8.4-12.6-14.2-9.5-9.3-11.2-10.5-12.8-9.5-1.5.9-3.4.3-11-3.5-5-2.5-9.3-4.6-9.4-4.6-.2 0-.9 1.2-1.5 2.7zM805.5 930.9c-.6.5-3.9 1.4-7.5 2-17.7 3-34.5 17.7-50.2 43.8-6.5 10.8-7 12.6-3.3 12.1 1.8-.2 5.1-3.3 11.3-10.8 4.8-5.8 10.8-11.9 13.3-13.5 3.6-2.3 4.8-3.9 5.7-7.1.9-3.4 2.1-4.7 6.4-7.4 2.9-1.9 6.4-4.3 7.8-5.5 1.4-1.3 4.5-2.5 6.9-2.9 2.4-.4 5.6-1.3 7.2-2.1 2.7-1.4 5.9-6 5.9-8.5 0-1.2-2.2-1.3-3.5-.1zM933 1119.9c0 2.4.4 3.1 1.9 3.1 1.6 0 1.8.5 1.4 3.9-.8 5.6 2.7 12.4 8.6 16.6 2.5 1.9 5.7 3.7 6.9 4 3 .7 12.5-2 14.8-4.2 1.6-1.6 1.4-1.8-4-3.4-7.9-2.4-14.5-6.9-22.6-15.6-6.9-7.4-7-7.5-7-4.4zM837.5 1124.6c-.8 2-2 5.3-2.6 7.4-1.1 3.7-1.2 3.7-7.3 4.2-7.6.6-12.3 2.9-13.2 6.4-.8 3 .4 4 5.4 5 8.3 1.6 16.3-4 21.6-14.9 5.4-11.1 5.4-11.7 1.2-11.7-3.2 0-3.8.4-5.1 3.6zM743.8 1501.7l-3.6 8.8 7.5.3c4.2.2 7.7.1 7.9-.1.6-.6-6.8-17.7-7.6-17.7-.3 0-2.3 3.9-4.2 8.7zM919.9 1483.7l-3.6.4-.5 11.9c-.3 6.5-.3 16.4 0 22l.5 10.2 8.7-.4c10.9-.4 15.4-2.9 19.4-10.9 3.2-6.4 3.6-17.3 1-23.9-2.8-7-12.8-10.7-25.5-9.3zM1237.9 1483.7c-1.8.4-2.9 6.1-2.9 14.9 0 5 .1 5.3 2.9 5.9 8.2 1.8 15.1-3.2 15.1-11 0-5.4-2.3-8.3-7.5-9.5-4.2-1-5-1-7.6-.3zM1312.3 1483.7c-2.2.4-2.3.9-2.3 10.3 0 10.5.2 11 5.6 11 10.2 0 16.1-11 9.7-17.9-2.8-3-8.2-4.4-13-3.4z"/></svg>